<mxfile host="Electron" agent="Mozilla/5.0 (Windows NT 10.0; Win64; x64) AppleWebKit/537.36 (KHTML, like Gecko) draw.io/26.1.1 Chrome/132.0.6834.210 Electron/34.3.3 Safari/537.36" version="26.1.1">
  <diagram name="Page-1" id="IDxsWPGjQFxeLevnamVC">
    <mxGraphModel dx="3269" dy="2815" grid="1" gridSize="10" guides="1" tooltips="1" connect="1" arrows="1" fold="1" page="1" pageScale="1" pageWidth="827" pageHeight="1169" math="0" shadow="0">
      <root>
        <mxCell id="0" />
        <mxCell id="1" parent="0" />
        <mxCell id="BblolfCGQ9ZpWYoBI5SJ-1" value="Chef cuisinier" style="swimlane;whiteSpace=wrap;html=1;" parent="1" vertex="1">
          <mxGeometry x="-230" y="110" width="200" height="120" as="geometry" />
        </mxCell>
        <mxCell id="BblolfCGQ9ZpWYoBI5SJ-5" value="&lt;b&gt;&lt;u&gt;Identifiantchefcuisinier&lt;/u&gt;&lt;/b&gt;" style="text;html=1;align=center;verticalAlign=middle;resizable=0;points=[];autosize=1;strokeColor=none;fillColor=none;" parent="BblolfCGQ9ZpWYoBI5SJ-1" vertex="1">
          <mxGeometry x="25" y="30" width="150" height="30" as="geometry" />
        </mxCell>
        <mxCell id="BblolfCGQ9ZpWYoBI5SJ-6" value="Nom&lt;div&gt;Datenaissance&lt;/div&gt;&lt;div&gt;Annéeexpérience&lt;/div&gt;" style="text;html=1;align=center;verticalAlign=middle;resizable=0;points=[];autosize=1;strokeColor=none;fillColor=none;" parent="BblolfCGQ9ZpWYoBI5SJ-1" vertex="1">
          <mxGeometry x="40" y="50" width="120" height="60" as="geometry" />
        </mxCell>
        <mxCell id="BblolfCGQ9ZpWYoBI5SJ-2" value="Style cuisine" style="swimlane;whiteSpace=wrap;html=1;" parent="1" vertex="1">
          <mxGeometry x="190" y="350" width="200" height="105" as="geometry" />
        </mxCell>
        <mxCell id="BblolfCGQ9ZpWYoBI5SJ-31" value="&lt;b&gt;&lt;u&gt;Identifiantstylecuisine&lt;/u&gt;&lt;/b&gt;" style="text;html=1;align=center;verticalAlign=middle;resizable=0;points=[];autosize=1;strokeColor=none;fillColor=none;" parent="BblolfCGQ9ZpWYoBI5SJ-2" vertex="1">
          <mxGeometry x="25" y="30" width="150" height="30" as="geometry" />
        </mxCell>
        <mxCell id="BblolfCGQ9ZpWYoBI5SJ-32" value="Nomstylecuisine" style="text;html=1;align=center;verticalAlign=middle;resizable=0;points=[];autosize=1;strokeColor=none;fillColor=none;" parent="BblolfCGQ9ZpWYoBI5SJ-2" vertex="1">
          <mxGeometry x="45" y="60" width="110" height="30" as="geometry" />
        </mxCell>
        <mxCell id="BblolfCGQ9ZpWYoBI5SJ-3" value="Restaurant" style="swimlane;whiteSpace=wrap;html=1;" parent="1" vertex="1">
          <mxGeometry x="-230" y="410" width="200" height="140" as="geometry" />
        </mxCell>
        <mxCell id="BblolfCGQ9ZpWYoBI5SJ-11" value="&lt;b&gt;&lt;u&gt;Identifiantrestaurant&lt;/u&gt;&lt;/b&gt;" style="text;html=1;align=center;verticalAlign=middle;resizable=0;points=[];autosize=1;strokeColor=none;fillColor=none;" parent="BblolfCGQ9ZpWYoBI5SJ-3" vertex="1">
          <mxGeometry x="25" y="30" width="140" height="30" as="geometry" />
        </mxCell>
        <mxCell id="BblolfCGQ9ZpWYoBI5SJ-12" value="Nomrestaurant&lt;div&gt;Adresserestaurant&lt;/div&gt;&lt;div&gt;Nombrecouvert&lt;/div&gt;" style="text;html=1;align=center;verticalAlign=middle;resizable=0;points=[];autosize=1;strokeColor=none;fillColor=none;" parent="BblolfCGQ9ZpWYoBI5SJ-3" vertex="1">
          <mxGeometry x="35" y="55" width="120" height="60" as="geometry" />
        </mxCell>
        <mxCell id="BblolfCGQ9ZpWYoBI5SJ-8" value="" style="shape=lineEllipse;perimeter=ellipsePerimeter;whiteSpace=wrap;html=1;backgroundOutline=1;" parent="1" vertex="1">
          <mxGeometry x="30" y="130" width="120" height="80" as="geometry" />
        </mxCell>
        <mxCell id="BblolfCGQ9ZpWYoBI5SJ-9" value="Maîtriser" style="text;html=1;align=center;verticalAlign=middle;resizable=0;points=[];autosize=1;strokeColor=none;fillColor=none;" parent="1" vertex="1">
          <mxGeometry x="55" y="145" width="70" height="30" as="geometry" />
        </mxCell>
        <mxCell id="BblolfCGQ9ZpWYoBI5SJ-10" value="Typecuisine" style="text;html=1;align=center;verticalAlign=middle;resizable=0;points=[];autosize=1;strokeColor=none;fillColor=none;" parent="1" vertex="1">
          <mxGeometry x="45" y="165" width="90" height="30" as="geometry" />
        </mxCell>
        <mxCell id="BblolfCGQ9ZpWYoBI5SJ-13" value="" style="shape=lineEllipse;perimeter=ellipsePerimeter;whiteSpace=wrap;html=1;backgroundOutline=1;" parent="1" vertex="1">
          <mxGeometry x="-190" y="280" width="120" height="80" as="geometry" />
        </mxCell>
        <mxCell id="BblolfCGQ9ZpWYoBI5SJ-14" value="Travailler" style="text;html=1;align=center;verticalAlign=middle;resizable=0;points=[];autosize=1;strokeColor=none;fillColor=none;" parent="1" vertex="1">
          <mxGeometry x="-165" y="300" width="70" height="30" as="geometry" />
        </mxCell>
        <mxCell id="BblolfCGQ9ZpWYoBI5SJ-16" value="" style="endArrow=none;html=1;rounded=0;entryX=0.5;entryY=1;entryDx=0;entryDy=0;exitX=0.5;exitY=0;exitDx=0;exitDy=0;edgeStyle=orthogonalEdgeStyle;" parent="1" source="BblolfCGQ9ZpWYoBI5SJ-13" target="BblolfCGQ9ZpWYoBI5SJ-1" edge="1">
          <mxGeometry width="50" height="50" relative="1" as="geometry">
            <mxPoint x="-250" y="330" as="sourcePoint" />
            <mxPoint x="-200" y="280" as="targetPoint" />
          </mxGeometry>
        </mxCell>
        <mxCell id="BblolfCGQ9ZpWYoBI5SJ-35" value="0,n" style="edgeLabel;html=1;align=center;verticalAlign=middle;resizable=0;points=[];" parent="BblolfCGQ9ZpWYoBI5SJ-16" vertex="1" connectable="0">
          <mxGeometry x="0.6507" relative="1" as="geometry">
            <mxPoint as="offset" />
          </mxGeometry>
        </mxCell>
        <mxCell id="BblolfCGQ9ZpWYoBI5SJ-17" value="" style="endArrow=none;html=1;rounded=0;edgeStyle=orthogonalEdgeStyle;entryX=0.5;entryY=1;entryDx=0;entryDy=0;exitX=0.5;exitY=0;exitDx=0;exitDy=0;" parent="1" source="BblolfCGQ9ZpWYoBI5SJ-3" target="BblolfCGQ9ZpWYoBI5SJ-13" edge="1">
          <mxGeometry width="50" height="50" relative="1" as="geometry">
            <mxPoint x="-195.5" y="430" as="sourcePoint" />
            <mxPoint x="-145.5" y="380" as="targetPoint" />
            <Array as="points">
              <mxPoint x="-130" y="390" />
              <mxPoint x="-130" y="390" />
            </Array>
          </mxGeometry>
        </mxCell>
        <mxCell id="BblolfCGQ9ZpWYoBI5SJ-36" value="1,n" style="edgeLabel;html=1;align=center;verticalAlign=middle;resizable=0;points=[];" parent="BblolfCGQ9ZpWYoBI5SJ-17" vertex="1" connectable="0">
          <mxGeometry x="-0.4934" y="1" relative="1" as="geometry">
            <mxPoint as="offset" />
          </mxGeometry>
        </mxCell>
        <mxCell id="BblolfCGQ9ZpWYoBI5SJ-18" value="" style="shape=lineEllipse;perimeter=ellipsePerimeter;whiteSpace=wrap;html=1;backgroundOutline=1;" parent="1" vertex="1">
          <mxGeometry x="-440" y="280" width="120" height="80" as="geometry" />
        </mxCell>
        <mxCell id="BblolfCGQ9ZpWYoBI5SJ-19" value="Employer" style="text;html=1;align=center;verticalAlign=middle;resizable=0;points=[];autosize=1;strokeColor=none;fillColor=none;" parent="1" vertex="1">
          <mxGeometry x="-415" y="295" width="70" height="30" as="geometry" />
        </mxCell>
        <mxCell id="BblolfCGQ9ZpWYoBI5SJ-20" value="Typechef" style="text;html=1;align=center;verticalAlign=middle;resizable=0;points=[];autosize=1;strokeColor=none;fillColor=none;" parent="1" vertex="1">
          <mxGeometry x="-415" y="320" width="70" height="30" as="geometry" />
        </mxCell>
        <mxCell id="BblolfCGQ9ZpWYoBI5SJ-21" value="" style="endArrow=none;html=1;rounded=0;edgeStyle=orthogonalEdgeStyle;entryX=0;entryY=0.5;entryDx=0;entryDy=0;exitX=0.5;exitY=0;exitDx=0;exitDy=0;" parent="1" source="BblolfCGQ9ZpWYoBI5SJ-18" edge="1">
          <mxGeometry width="50" height="50" relative="1" as="geometry">
            <mxPoint x="-380" y="265" as="sourcePoint" />
            <mxPoint x="-230" y="155" as="targetPoint" />
            <Array as="points">
              <mxPoint x="-380" y="155" />
            </Array>
          </mxGeometry>
        </mxCell>
        <mxCell id="BblolfCGQ9ZpWYoBI5SJ-33" value="1,n" style="edgeLabel;html=1;align=center;verticalAlign=middle;resizable=0;points=[];" parent="BblolfCGQ9ZpWYoBI5SJ-21" vertex="1" connectable="0">
          <mxGeometry x="0.8384" y="-2" relative="1" as="geometry">
            <mxPoint y="-2" as="offset" />
          </mxGeometry>
        </mxCell>
        <mxCell id="BblolfCGQ9ZpWYoBI5SJ-22" value="" style="endArrow=none;html=1;rounded=0;edgeStyle=orthogonalEdgeStyle;entryX=0.5;entryY=1;entryDx=0;entryDy=0;exitX=0;exitY=0.25;exitDx=0;exitDy=0;" parent="1" source="BblolfCGQ9ZpWYoBI5SJ-3" target="BblolfCGQ9ZpWYoBI5SJ-18" edge="1">
          <mxGeometry width="50" height="50" relative="1" as="geometry">
            <mxPoint x="-470" y="535" as="sourcePoint" />
            <mxPoint x="-320" y="410" as="targetPoint" />
            <Array as="points">
              <mxPoint x="-380" y="445" />
            </Array>
          </mxGeometry>
        </mxCell>
        <mxCell id="BblolfCGQ9ZpWYoBI5SJ-34" value="1,n" style="edgeLabel;html=1;align=center;verticalAlign=middle;resizable=0;points=[];" parent="BblolfCGQ9ZpWYoBI5SJ-22" vertex="1" connectable="0">
          <mxGeometry x="-0.7541" relative="1" as="geometry">
            <mxPoint as="offset" />
          </mxGeometry>
        </mxCell>
        <mxCell id="BblolfCGQ9ZpWYoBI5SJ-23" value="" style="endArrow=none;html=1;rounded=0;edgeStyle=orthogonalEdgeStyle;entryX=0;entryY=0.5;entryDx=0;entryDy=0;exitX=1;exitY=0.5;exitDx=0;exitDy=0;" parent="1" source="BblolfCGQ9ZpWYoBI5SJ-1" target="BblolfCGQ9ZpWYoBI5SJ-8" edge="1">
          <mxGeometry width="50" height="50" relative="1" as="geometry">
            <mxPoint x="75" y="420" as="sourcePoint" />
            <mxPoint x="225" y="295" as="targetPoint" />
            <Array as="points">
              <mxPoint x="50" y="170" />
            </Array>
          </mxGeometry>
        </mxCell>
        <mxCell id="BblolfCGQ9ZpWYoBI5SJ-38" value="1,n" style="edgeLabel;html=1;align=center;verticalAlign=middle;resizable=0;points=[];" parent="BblolfCGQ9ZpWYoBI5SJ-23" vertex="1" connectable="0">
          <mxGeometry x="-0.7111" y="1" relative="1" as="geometry">
            <mxPoint as="offset" />
          </mxGeometry>
        </mxCell>
        <mxCell id="BblolfCGQ9ZpWYoBI5SJ-24" value="" style="endArrow=none;html=1;rounded=0;edgeStyle=orthogonalEdgeStyle;entryX=0;entryY=0.5;entryDx=0;entryDy=0;exitX=1;exitY=0.5;exitDx=0;exitDy=0;" parent="1" source="BblolfCGQ9ZpWYoBI5SJ-8" target="BblolfCGQ9ZpWYoBI5SJ-43" edge="1">
          <mxGeometry width="50" height="50" relative="1" as="geometry">
            <mxPoint x="160" y="165" as="sourcePoint" />
            <mxPoint x="250" y="165" as="targetPoint" />
            <Array as="points" />
          </mxGeometry>
        </mxCell>
        <mxCell id="BblolfCGQ9ZpWYoBI5SJ-39" value="0,n" style="edgeLabel;html=1;align=center;verticalAlign=middle;resizable=0;points=[];" parent="BblolfCGQ9ZpWYoBI5SJ-24" vertex="1" connectable="0">
          <mxGeometry x="0.3944" y="-1" relative="1" as="geometry">
            <mxPoint x="-1" y="-1" as="offset" />
          </mxGeometry>
        </mxCell>
        <mxCell id="BblolfCGQ9ZpWYoBI5SJ-25" value="" style="endArrow=none;html=1;rounded=0;edgeStyle=orthogonalEdgeStyle;exitX=1;exitY=0.5;exitDx=0;exitDy=0;entryX=0.5;entryY=1;entryDx=0;entryDy=0;" parent="1" source="BblolfCGQ9ZpWYoBI5SJ-26" target="BblolfCGQ9ZpWYoBI5SJ-2" edge="1">
          <mxGeometry width="50" height="50" relative="1" as="geometry">
            <mxPoint x="120" y="480" as="sourcePoint" />
            <mxPoint x="170" y="430" as="targetPoint" />
          </mxGeometry>
        </mxCell>
        <mxCell id="BblolfCGQ9ZpWYoBI5SJ-42" value="0,n" style="edgeLabel;html=1;align=center;verticalAlign=middle;resizable=0;points=[];" parent="BblolfCGQ9ZpWYoBI5SJ-25" vertex="1" connectable="0">
          <mxGeometry x="0.9485" y="2" relative="1" as="geometry">
            <mxPoint x="2" y="5" as="offset" />
          </mxGeometry>
        </mxCell>
        <mxCell id="BblolfCGQ9ZpWYoBI5SJ-26" value="" style="shape=lineEllipse;perimeter=ellipsePerimeter;whiteSpace=wrap;html=1;backgroundOutline=1;" parent="1" vertex="1">
          <mxGeometry x="20" y="440" width="120" height="80" as="geometry" />
        </mxCell>
        <mxCell id="BblolfCGQ9ZpWYoBI5SJ-27" value="Posseder2" style="text;html=1;align=center;verticalAlign=middle;resizable=0;points=[];autosize=1;strokeColor=none;fillColor=none;" parent="1" vertex="1">
          <mxGeometry x="40" y="455" width="80" height="30" as="geometry" />
        </mxCell>
        <mxCell id="BblolfCGQ9ZpWYoBI5SJ-28" value="Stylecuisine" style="text;html=1;align=center;verticalAlign=middle;resizable=0;points=[];autosize=1;strokeColor=none;fillColor=none;" parent="1" vertex="1">
          <mxGeometry x="35" y="475" width="90" height="30" as="geometry" />
        </mxCell>
        <mxCell id="BblolfCGQ9ZpWYoBI5SJ-30" value="" style="endArrow=none;html=1;rounded=0;edgeStyle=orthogonalEdgeStyle;entryX=0;entryY=0.5;entryDx=0;entryDy=0;exitX=1;exitY=0.5;exitDx=0;exitDy=0;" parent="1" source="BblolfCGQ9ZpWYoBI5SJ-3" target="BblolfCGQ9ZpWYoBI5SJ-26" edge="1">
          <mxGeometry width="50" height="50" relative="1" as="geometry">
            <mxPoint x="50" y="630" as="sourcePoint" />
            <mxPoint x="100" y="580" as="targetPoint" />
          </mxGeometry>
        </mxCell>
        <mxCell id="BblolfCGQ9ZpWYoBI5SJ-41" value="1,1" style="edgeLabel;html=1;align=center;verticalAlign=middle;resizable=0;points=[];" parent="BblolfCGQ9ZpWYoBI5SJ-30" vertex="1" connectable="0">
          <mxGeometry x="-0.2566" relative="1" as="geometry">
            <mxPoint as="offset" />
          </mxGeometry>
        </mxCell>
        <mxCell id="BblolfCGQ9ZpWYoBI5SJ-37" value="La relation restaurant//Chef cuisinier est en 1,n et pas 0,n sinon ce n&#39;est pas un restaurant." style="text;html=1;align=center;verticalAlign=middle;resizable=0;points=[];autosize=1;strokeColor=none;fillColor=none;" parent="1" vertex="1">
          <mxGeometry x="-380" y="565" width="500" height="30" as="geometry" />
        </mxCell>
        <mxCell id="BblolfCGQ9ZpWYoBI5SJ-40" value="La relation Chef cuisinier//Type cuisine est en 1,n et pas 0,n sinon ce n&#39;est pas un &quot;Chef&quot; cuisinier." style="text;html=1;align=center;verticalAlign=middle;resizable=0;points=[];autosize=1;strokeColor=none;fillColor=none;" parent="1" vertex="1">
          <mxGeometry x="-410" y="50" width="540" height="30" as="geometry" />
        </mxCell>
        <mxCell id="BblolfCGQ9ZpWYoBI5SJ-43" value="Type cuisine" style="swimlane;whiteSpace=wrap;html=1;" parent="1" vertex="1">
          <mxGeometry x="180" y="117.5" width="200" height="105" as="geometry" />
        </mxCell>
        <mxCell id="BblolfCGQ9ZpWYoBI5SJ-44" value="&lt;b&gt;&lt;u&gt;Identifianttypecuisine&lt;/u&gt;&lt;/b&gt;" style="text;html=1;align=center;verticalAlign=middle;resizable=0;points=[];autosize=1;strokeColor=none;fillColor=none;" parent="BblolfCGQ9ZpWYoBI5SJ-43" vertex="1">
          <mxGeometry x="25" y="30" width="150" height="30" as="geometry" />
        </mxCell>
        <mxCell id="BblolfCGQ9ZpWYoBI5SJ-45" value="Nomtypecuisine" style="text;html=1;align=center;verticalAlign=middle;resizable=0;points=[];autosize=1;strokeColor=none;fillColor=none;" parent="BblolfCGQ9ZpWYoBI5SJ-43" vertex="1">
          <mxGeometry x="45" y="60" width="110" height="30" as="geometry" />
        </mxCell>
        <mxCell id="BblolfCGQ9ZpWYoBI5SJ-46" value="" style="shape=lineEllipse;perimeter=ellipsePerimeter;whiteSpace=wrap;html=1;backgroundOutline=1;" parent="1" vertex="1">
          <mxGeometry x="220" y="240" width="120" height="80" as="geometry" />
        </mxCell>
        <mxCell id="BblolfCGQ9ZpWYoBI5SJ-47" value="Appartenir" style="text;html=1;align=center;verticalAlign=middle;resizable=0;points=[];autosize=1;strokeColor=none;fillColor=none;" parent="1" vertex="1">
          <mxGeometry x="240" y="250" width="80" height="30" as="geometry" />
        </mxCell>
        <mxCell id="BblolfCGQ9ZpWYoBI5SJ-49" value="" style="endArrow=none;html=1;rounded=0;edgeStyle=orthogonalEdgeStyle;entryX=0.5;entryY=1;entryDx=0;entryDy=0;exitX=0.5;exitY=0;exitDx=0;exitDy=0;" parent="1" source="BblolfCGQ9ZpWYoBI5SJ-46" target="BblolfCGQ9ZpWYoBI5SJ-43" edge="1">
          <mxGeometry width="50" height="50" relative="1" as="geometry">
            <mxPoint x="120" y="255" as="sourcePoint" />
            <mxPoint x="180" y="255" as="targetPoint" />
            <Array as="points">
              <mxPoint x="280" y="240" />
              <mxPoint x="280" y="240" />
            </Array>
          </mxGeometry>
        </mxCell>
        <mxCell id="BblolfCGQ9ZpWYoBI5SJ-50" value="1,n" style="edgeLabel;html=1;align=center;verticalAlign=middle;resizable=0;points=[];" parent="BblolfCGQ9ZpWYoBI5SJ-49" vertex="1" connectable="0">
          <mxGeometry x="-0.7111" y="1" relative="1" as="geometry">
            <mxPoint x="1" y="-7" as="offset" />
          </mxGeometry>
        </mxCell>
        <mxCell id="BblolfCGQ9ZpWYoBI5SJ-51" value="" style="endArrow=none;html=1;rounded=0;edgeStyle=orthogonalEdgeStyle;entryX=0.5;entryY=0;entryDx=0;entryDy=0;exitX=0.5;exitY=1;exitDx=0;exitDy=0;" parent="1" source="BblolfCGQ9ZpWYoBI5SJ-46" target="BblolfCGQ9ZpWYoBI5SJ-2" edge="1">
          <mxGeometry width="50" height="50" relative="1" as="geometry">
            <mxPoint x="110" y="309.65999999999997" as="sourcePoint" />
            <mxPoint x="170" y="309.65999999999997" as="targetPoint" />
            <Array as="points">
              <mxPoint x="280" y="350" />
            </Array>
          </mxGeometry>
        </mxCell>
        <mxCell id="BblolfCGQ9ZpWYoBI5SJ-52" value="1,n" style="edgeLabel;html=1;align=center;verticalAlign=middle;resizable=0;points=[];" parent="BblolfCGQ9ZpWYoBI5SJ-51" vertex="1" connectable="0">
          <mxGeometry x="-0.7111" y="1" relative="1" as="geometry">
            <mxPoint x="-1" y="9" as="offset" />
          </mxGeometry>
        </mxCell>
        <mxCell id="BblolfCGQ9ZpWYoBI5SJ-53" value="&lt;font style=&quot;font-size: 32px;&quot;&gt;MCD&lt;/font&gt;" style="text;html=1;align=center;verticalAlign=middle;resizable=0;points=[];autosize=1;strokeColor=none;fillColor=none;" parent="1" vertex="1">
          <mxGeometry x="-90" y="-20" width="100" height="50" as="geometry" />
        </mxCell>
      </root>
    </mxGraphModel>
  </diagram>
</mxfile>
